<?xml version="1.0" standalone="no"?>
<!DOCTYPE svg PUBLIC "-//W3C//DTD SVG 20010904//EN"
 "http://www.w3.org/TR/2001/REC-SVG-20010904/DTD/svg10.dtd">
<svg version="1.0" xmlns="http://www.w3.org/2000/svg"
 width="512.000000pt" height="512.000000pt" viewBox="0 0 512.000000 512.000000"
 preserveAspectRatio="xMidYMid meet">

<g transform="translate(0.000000,512.000000) scale(0.100000,-0.100000)"
fill="#000000" stroke="none">
<path d="M4722 4839 c-61 -24 -118 -74 -128 -113 -10 -41 18 -94 60 -111 38
-16 68 -11 116 22 47 32 85 30 121 -6 37 -37 38 -79 3 -120 l-26 -31 -349 0
c-388 0 -404 -2 -434 -61 -14 -27 -15 -39 -6 -70 21 -71 11 -69 437 -69 l381
0 61 31 c34 16 73 45 88 62 65 77 88 184 59 282 -23 80 -107 166 -185 189 -71
21 -133 19 -198 -5z"/>
<path d="M2294 4270 c-55 -22 -79 -97 -49 -150 8 -14 14 -28 15 -31 0 -3 -24
-11 -52 -18 -64 -16 -210 -75 -256 -103 -18 -11 -34 -19 -35 -17 -60 101 -118
159 -160 159 -32 0 -76 -29 -93 -61 -19 -38 -12 -71 24 -118 15 -19 34 -48 43
-65 l16 -30 -83 -79 c-90 -85 -171 -187 -224 -281 l-34 -59 -17 40 c-33 77
-106 97 -160 44 -23 -24 -29 -38 -29 -73 0 -47 41 -145 85 -203 l26 -34 -20
-93 c-11 -51 -23 -131 -27 -178 l-6 -86 -87 -12 c-76 -10 -89 -15 -114 -42
-38 -43 -37 -91 4 -132 30 -31 30 -31 112 -24 45 3 87 3 93 -1 6 -5 16 -37 23
-71 19 -97 58 -207 112 -316 57 -113 60 -147 24 -224 -34 -72 -32 -97 9 -138
52 -52 117 -42 157 23 l21 34 69 -65 c37 -36 102 -88 144 -116 41 -28 75 -52
75 -54 0 -2 -12 -27 -27 -56 -15 -29 -28 -74 -31 -104 -4 -49 -2 -54 28 -79
61 -52 143 -22 168 61 7 22 21 51 32 65 l20 25 58 -20 c99 -35 223 -58 350
-65 l123 -6 -28 -29 c-61 -64 -15 -168 74 -168 32 0 44 8 89 55 30 32 63 80
79 118 27 62 29 64 79 77 63 16 209 74 256 102 22 13 36 16 38 9 2 -6 23 -38
47 -71 54 -72 101 -93 153 -66 40 20 66 69 57 105 -4 14 -19 41 -33 60 -15 19
-34 48 -43 63 l-15 29 102 102 c65 66 126 139 169 205 74 113 82 119 185 132
54 7 69 14 92 39 59 66 17 161 -71 161 -23 0 -41 4 -41 8 0 4 9 48 19 97 11
50 23 129 27 176 l7 86 65 7 c114 12 162 46 162 114 0 24 -9 42 -31 64 -30 31
-30 31 -112 24 -45 -3 -87 -3 -93 1 -6 5 -16 36 -23 70 -22 116 -81 272 -142
374 -16 27 -29 52 -29 55 0 3 16 2 35 -2 129 -24 176 145 53 189 -56 20 -130
27 -193 18 l-50 -7 -67 63 c-37 34 -101 85 -143 113 -41 28 -75 52 -75 54 0 2
12 27 27 56 15 29 28 74 31 104 4 49 2 54 -28 79 -61 52 -143 22 -168 -61 -7
-22 -21 -51 -32 -65 l-20 -25 -58 20 c-97 34 -222 57 -342 64 -130 7 -159 21
-205 95 -24 37 -70 70 -97 68 -7 0 -23 -4 -34 -9z m486 -373 c59 -15 56 -18
-32 -32 -55 -9 -92 -56 -85 -109 8 -57 43 -86 107 -86 66 0 162 32 243 80 l67
41 87 -56 c148 -97 299 -268 381 -430 30 -61 73 -185 63 -185 -4 0 -20 17 -35
39 -27 39 -62 61 -96 61 -52 0 -100 -49 -100 -103 0 -60 115 -178 229 -234
l54 -27 -6 -95 c-15 -239 -101 -459 -251 -642 -53 -64 -70 -64 -41 1 35 78 -7
150 -87 150 -32 0 -46 -6 -68 -30 -44 -47 -62 -111 -67 -242 l-5 -117 -92 -45
c-171 -85 -361 -124 -546 -112 -58 3 -130 12 -160 20 -59 14 -56 17 32 31 55
9 92 56 85 109 -8 57 -43 86 -107 86 -66 0 -162 -32 -243 -80 l-67 -41 -87 56
c-148 97 -299 268 -381 430 -30 61 -73 185 -63 185 4 0 20 -17 35 -39 41 -59
90 -75 145 -47 29 15 51 53 51 87 0 67 -131 197 -247 245 l-36 15 6 97 c15
240 101 459 251 643 53 64 70 64 41 -1 -35 -78 7 -150 87 -150 32 0 46 6 68
30 44 47 62 111 67 242 l5 117 92 45 c95 47 228 90 331 106 79 12 305 4 375
-13z"/>
<path d="M2344 3581 c-31 -13 -64 -60 -64 -90 0 -39 33 -86 95 -133 l54 -43
-37 -22 c-20 -13 -42 -23 -49 -23 -19 0 -63 -60 -63 -86 0 -33 25 -81 49 -94
57 -30 161 11 251 97 l55 54 65 -7 c74 -7 213 11 245 32 47 30 58 95 24 138
-33 42 -61 48 -150 35 -136 -21 -251 12 -351 100 -48 43 -89 57 -124 42z"/>
<path d="M2842 2995 c-48 -21 -65 -69 -65 -190 -1 -107 12 -179 48 -261 l23
-52 -24 -40 c-41 -68 -76 -172 -69 -203 8 -36 59 -79 93 -79 43 0 88 34 102
77 48 147 157 261 280 293 82 21 119 84 87 147 -35 67 -111 68 -240 5 l-79
-39 -8 23 c-15 39 -22 137 -12 184 4 25 5 59 0 77 -14 56 -79 83 -136 58z"/>
<path d="M1869 2911 c-34 -34 -39 -82 -11 -122 9 -14 36 -54 59 -88 23 -34 49
-84 58 -111 19 -58 22 -157 6 -217 -15 -54 -6 -87 31 -118 33 -28 66 -32 106
-11 40 21 72 97 72 174 0 41 21 42 74 2 54 -41 106 -41 147 -1 40 40 40 88 -1
134 -37 42 -131 93 -198 108 -50 10 -53 12 -82 72 -35 74 -111 176 -142 194
-41 22 -87 16 -119 -16z"/>
<path d="M773 4246 c-140 -46 -201 -143 -135 -217 39 -43 83 -43 148 0 42 28
55 32 94 28 64 -7 110 -58 110 -122 0 -38 -6 -52 -34 -83 l-34 -37 -329 -5
c-180 -3 -336 -9 -346 -14 -21 -10 -47 -57 -47 -86 0 -35 27 -76 58 -89 21 -9
120 -11 358 -9 l329 3 57 27 c66 31 128 91 160 156 34 69 33 206 -1 276 -53
107 -159 176 -280 182 -38 2 -83 -2 -108 -10z"/>
<path d="M3933 4065 c-46 -20 -68 -68 -54 -116 20 -68 26 -69 304 -69 275 0
286 2 307 65 16 48 -8 101 -54 120 -49 21 -456 21 -503 0z"/>
<path d="M35 2277 c-17 -14 -28 -36 -32 -63 -5 -36 -1 -46 25 -75 l30 -34 235
-3 c265 -3 293 2 322 59 14 27 15 39 6 70 -20 67 -29 69 -310 69 -245 0 -250
0 -276 -23z"/>
<path d="M35 1878 c-17 -15 -28 -37 -32 -64 -5 -36 -1 -46 25 -75 l30 -34 470
-5 c440 -5 471 -6 490 -24 29 -26 36 -68 18 -105 -29 -54 -92 -68 -140 -30
-57 45 -123 40 -160 -12 -40 -58 -5 -128 88 -177 43 -22 64 -27 131 -27 67 0
88 5 131 27 211 111 210 407 -1 521 -39 22 -49 22 -532 25 l-491 3 -27 -23z"/>
<path d="M3420 1205 c-108 -18 -210 -48 -420 -125 -410 -149 -531 -170 -1018
-170 -329 0 -346 -3 -370 -55 -16 -34 -15 -60 3 -94 26 -52 42 -53 437 -49
320 5 378 8 488 28 162 29 310 72 545 158 247 90 333 112 475 119 165 8 244
-16 428 -129 100 -61 228 -123 307 -149 62 -19 97 -23 300 -27 253 -5 271 -9
305 -65 36 -59 18 -130 -43 -167 -31 -20 -68 -20 -2297 -20 -2229 0 -2266 0
-2297 20 -82 50 -82 160 0 210 30 18 52 20 295 20 286 0 307 4 330 55 16 34
15 60 -3 94 -25 49 -47 52 -356 49 -272 -3 -286 -4 -335 -26 -64 -29 -136
-102 -166 -167 -32 -71 -32 -189 1 -262 29 -66 110 -143 176 -169 49 -19 103
-19 2355 -19 2252 0 2306 0 2355 19 66 26 147 103 176 169 33 73 33 191 1 263
-29 64 -102 136 -167 166 -46 21 -69 23 -295 29 -301 8 -302 8 -532 146 -212
127 -326 164 -497 162 -58 -1 -140 -7 -181 -14z"/>
<path d="M1201 896 c-87 -48 -50 -186 49 -186 51 0 100 49 100 99 0 75 -83
124 -149 87z"/>
</g>
</svg>
